<svg xmlns="http://www.w3.org/2000/svg"><defs><clipPath id="clip-path" transform="translate(-328 -225)"><path class="cls-1" d="M328 225h142.8v152H328z"/></clipPath><clipPath id="clip-path" transform="translate(-374 -266)"><path class="cls-1" d="M374 266h51.84v69H374z"/></clipPath><clipPath id="clip-path" transform="translate(-362 -266)"><path class="cls-1" d="M362 266h74.88v69H362z"/></clipPath><clipPath id="clip-path" transform="translate(-371 -257)"><path class="cls-1" d="M371 256h57v89h-57z"/></clipPath></defs><symbol id="icon-about-nav" viewBox="0 0 194.646 194.646"><path d="M89.766.699C67.374 4.127 51.459 16.812 41.091 36.691c-9.387 17.998-13.503 41.621-5.675 60.86.076.188.168.355.271.51.11.737.59 1.379 1.529 1.535 4.67.786 9.493.816 14.207.469 2.531-.186 5.734.03 8.155-1.012 7.629 7.893 17.976 13.456 27.914 14.463 14.138 1.432 27.918-3.195 38.818-12.136a30.936 30.936 0 0 0 2.547-2.367c.204.179.438.333.732.433 3.889 1.309 8.656 1.002 12.704 1.024 4.115.022 8.481.47 12.558-.147 1.088-.164 1.747-.991 1.988-1.963.29-.326.515-.752.617-1.312C165.14 54.79 141.87-7.277 89.766.699zM127.593 91.8c-7.307 11.502-22.876 16.149-35.667 16.472-11.043.279-21.462-6.07-28.925-13.678-8.738-8.907-10.608-19.93-8.551-31.717 12.431 3.283 24.785.347 36.277-5.149 6.67-3.19 12.459-7.801 18.9-11.364 8.598-4.756 20.293 10.476 23.505 16.911.245.491.558.834.903 1.074-.473 9.653-1.065 18.986-6.442 27.451z"/><path d="M104.316 85.209c-.246 4.848-4.043 6.99-8.555 6.942-4.681-.05-7.8-3.277-9.002-7.553-.741-2.636-4.272-1.875-4.517.611-1.633 16.584 27.599 17.199 28.047 0 .103-3.868-5.777-3.825-5.973 0zM79.378 68.841c-1.188-1.187-3.1-1.183-4.33-.084-1.275.421-2.242 1.393-2.242 2.917 0 1.567 1.428 3.305 3.124 3.124 1.364-.144 2.445-.578 3.448-1.521 1.247-1.17 1.181-3.255 0-4.436zM112.853 68.533c-.015.008-.034.011-.048.02-.051.03-.08.075-.128.107a3.135 3.135 0 0 0-.168.141c-.898.708-1.199 1.799-.997 2.93.074.415.265.746.516 1.033 1.606 2.554 5.833 1.439 5.833-1.704-.001-2.782-3.071-3.85-5.008-2.527zM169.333 163.357c-5.905-12.139-14.972-23.31-24.383-32.906-5.437-5.545-15.998-18.91-24.512-15.25-4.992 2.146-7.215 11.859-8.956 16.287-3.673 9.342-5.576 19.971-10.941 28.58-7.882-11.617-13.389-24.69-21.273-36.344-5.667-8.377-12.83-9.34-21.425-4.591-11.663 6.445-21.282 18.793-28.264 29.842-6.68 10.572-10.966 23.474-8.412 35.933-1.257.893-1.093 3.31.67 3.875 11.125 3.57 23.076 3.255 34.636 3.078 13.559-.207 27.031-.705 40.583.066 12.213.696 24.413 1.584 36.635 2.104 10.984.466 23.205 1.529 33.99-1.063.889-.214 1.442-.769 1.71-1.437.107-.076.215-.145.319-.239 8.179-7.509 3.739-19.476-.377-27.935z"/></symbol><symbol id="icon-codepen" viewBox="0 0 46.965 46.965"><path d="M46.815 22.775c-.2-4.2-.2-8.4-.5-9.2-.3-.8-4.4-3.6-6.1-4.3-1.6-.7-8.6-4.3-10.6-5.3-2-1.1-5.9-3.8-6.5-3.8s-1.6.6-2.6 1.1-4.9 3.1-7.7 4.5c-2.8 1.5-6 3.5-9.3 5-3.4 1.5-3.2 1.7-3.4 2.3-.1.4.2 2.5.3 5.6.1 3.1-.3 9-.4 10.7-.1 1.6.3 2.6 1 3.6s3.6 2.5 6.8 4.3c3.2 1.8 8.4 5.5 11 7.4s3.2 1.8 4.3 2.1c1.1.3 7.9-3.8 13.3-7.1s10.3-6.3 10.4-6.9c.2-.5.2-5.8 0-10zm-1 7.3c-.2-.2-3.4-3.8-3.6-3.7-.2.2-.3.5-.3.7.1.1 3.4 3.5 3.5 3.8.1.2-.2.6-.4.5-.2-.1-3-2.9-3.4-2.9-.4-.1-.9.4-.5.7.3.3 3.1 2.6 3.1 2.8 0 .2-.7.9-.9.8-.2-.1-2.7-2.7-3.1-2.7s-.8.4-.6.5c.2.2 2.9 2.6 2.7 2.8-.1.2-.7 1-1 .7s-2.4-2.7-2.8-2.7-.7.4-.6.6c.2.2 2.5 2.4 2.5 2.6s-.7.5-.9.5c-.2-.1-2.3-2.6-2.6-2.6s-.7.3-.6.4 2.5 2.7 2.5 2.8-.6.6-.8.5c-.2-.2-2-2.6-2.6-2.6-.5 0-.7.3-.6.4s2.5 2.5 2.3 2.6c-.2.2-.8.5-1 .4-.2-.2-2.4-2.3-2.7-2.4-.3-.1-.7.4-.6.6.2.2 2.7 2.2 2.4 2.4-.3.2-1.2 1-1.5.8s-2.1-2.3-2.6-2.3-.9.3-.6.5c.3.3 2.3 2.1 2.1 2.3-.2.2-.5.6-.7.4-.2-.2-2.1-2-2.4-2s-.8.2-.6.4 2.5 1.8 2.3 2.2-1 .9-1.2.7c-.2-.2-2.2-2.2-2.5-2.2-.3.1-.6.3-.4.5s2.2 2 2.1 2.2-.6.7-.8.5c-.1-.2-2.5-2.6-2.7-2.5s-.6.7-.4.9c.3.2 2.5 1.8 2.3 2s-.8.8-1.1.6-2.1-1.9-2.4-1.9-.6.4-.3.7c.4.3 1.9 1.5 1.9 1.6s-.3.4-.6.3c-.3-.1-2-1.6-2.3-1.6s-.8.4-.6.6c.2.2 2 1.2 1.9 1.5s-.5.7-.8.5-8.7-5.3-11.4-6.9c-2.7-1.6-6.1-3.7-8.1-4.9-1.9-1.2-2.9-1.4-3.1-2.5s.2-5.9.3-8.6c.1-2.7-.1-4.9-.2-5.5-.1-.7-.2-2-.1-2.4.1-.7 1.5-1.3 4.4-2.6 2.8-1.3 11.9-6.6 13.4-7.5s3.5-2.1 4-2 5 3.3 8.2 4.6c3.1 1.3 9.7 4.5 10.7 5.2s1.5 1.1 1.5 1.2-.2.4.1.6c.4.2 2 1.6 2.1 1.8 0 .2.2 1.6.1 1.5s-1.8-2.2-2.2-2.2-.7.4-.5.7c.2.3 2.6 2.4 2.8 2.7.1.3.3 1 .1.9-.2-.2-1.9-2-2.1-2s-.5.2-.4.6 2.4 2.5 2.5 2.7.1 1.7-.1 1.6-1.9-2.4-2.1-2.3-.2.6-.2.6 2.2 2.6 2.3 2.9.3 2.3.1 2c-.2-.3-1.9-2.3-2.1-2.3s-.4.3-.3.6 2.3 2.7 2.4 2.9c.1.2.2 2.1 0 1.8-.1-.3-2.2-2.6-2.4-2.5s-.5.4-.3.7c.2.2 2.7 2.9 2.7 3.1.5.1.6 1.4.4 1.3zm-38.5-13.5c.6.3 5.4 3.5 5.9 3.8s1.8.1 3.3-.6 4.2-2 4.3-2.3.1-5.1 0-5.9 0-4-.3-4.1-6.3 3-8.1 4-6.2 3.3-6.4 3.5c-.3.5.7 1.3 1.3 1.6zm1.9-.7c.1-.2 4.9-2.9 6.6-4s3.6-2.2 3.7-1.9c.2.3.7 6.4.2 6.9-.5.4-5.3 2.8-6 2.4-.5-.3-4.8-2.5-4.5-3.4zm16.1 1.3c.1.3 5 2.6 5.4 2.7s1.1-.1 1.8-.4c.7-.3 7.1-3.7 7.8-4 .7-.3 1-.5 1.1-1.1 0-.6-1-1.4-3.1-2.6s-7.1-3.4-9.2-4.3-2.8-.7-3.2-.4c-.7.4-.5 1.9-.5 2.7-.1.9-.2 7.1-.1 7.4zm1.2-9.3c.1-.2 4.4 1.6 8.2 3.5 3.8 2 5.4 2.8 5.3 3.2s-4.5 2.4-6.4 3.3c-1.9.9-2.4 1.1-2.7 1-.2-.1-4.3-1.9-4.4-2.3-.2-.5 0-4.1-.1-5.2.1-1.2-.1-3.3.1-3.5zm1 13.4c-.3-.4-4-2.4-4.4-2.5-.5-.1-1.3.5-2.3 1.1s-2.4 1.5-2.3 1.8c.1.8 4 2.5 4.7 2.6s3.4-1.6 3.9-2c.3-.2.6-.6.4-1zm-4.4 1.8c-.4-.2-1.3-.8-1.3-.9-.1-.2 2.4-1.6 2.7-1.4.4.3 1.2.5 1.3.8 0 .2-2.3 1.7-2.7 1.5zm-4.7-16.7c.5-.4 3.5-1.8 4-2.2.6-.3 1.4.3 1.7.5.3.1.7-.1.8-.4.1-.3-1.1-.9-1.5-1.1s-.8-.2-1.5.1c-.7.3-4.4 2.3-4.6 2.5s0 .7.2.8c.2 0 .4.2.9-.2zm-13.4 7.2c.3-.3 0-.4-.4-.6s-2.4.7-2.6 1.1c-.2.3.2 2.2.5 2.3.3.2.7-.1.9-.4.2-.3-.1-1-.2-1.3 0-.4 1.5-.9 1.8-1.1zm1.8 10.9c.8-.5 2.2-1.1 2-1.5s-2.9-2.2-3.5-2.6-1.6.1-1.7.4c-.1.2 0 3.2 0 3.7s-.1 1.1.5 1.4c.7.2 1.8-.9 2.7-1.4zm-.9-2.1c.1-.2 1.2.6 1.1.8 0 .2-.9.9-1.2.7s0-1.3.1-1.5zm13.8 5.9c-.6-.3-6.2-3.3-6.6-3.3-.4-.1-8.9 4.5-8.9 4.7 0 .5 2.5 1.5 5.8 3.4 3.2 1.8 9.1 5.2 9.6 5.5s1.2.2 1.5-.2c.3-.3.1-7.9.1-8.6-.1-.5-.9-1.1-1.5-1.5zm.3 9.1c-.4-.1-8-4.4-9.2-5s-2.1-1.3-2.1-1.4c.1-.4 5.2-4.1 5.8-3.9.5.1 5.3 2.5 5.5 2.9.2.3.4 7.5 0 7.4zm11.5-12.5c-.7-.1-6.7 3-6.8 3.5-.1.4.6 7.5.6 7.8.1.2.4.7.9.8.5.1 1.7-.4 3.6-1.4s9.1-5.2 9.3-5.6c.3-.4.1-1.1-.1-1.3-.1-.3-6.8-3.7-7.5-3.8zm.2 8.5c-2.5 1.5-4.7 2.8-5.1 2.5s-.8-5.2-.8-5.6c0-.3 6.5-3.8 7.2-3.6.7.3 5.1 2.2 5.1 2.6.1.4-3.8 2.6-6.4 4.1zm9.9-15.2c-.4 0-5.8 3.3-5.8 3.5-.1 1.2 2.7 1.7 3.9 2.2 1.2.5 2.4 1 2.7.7s.1-3.3.1-4.8c0-1.7-.5-1.6-.9-1.6zm-.1 5.2c-.4-.1-3.6-1.5-3.9-1.7s3.5-2.3 3.8-2.1c.3.3.4 3.9.1 3.8z"/></symbol><symbol id="icon-contact-nav" viewBox="0 0 229.917 229.917"><path d="M44.356 85.889c.002-.224.025-.448.029-.672.665-38.815 31.969-69.437 70.682-69.437.276 0 .476.002.753.005 38.65.44 69.847 31.908 69.847 70.662v.153c0 8.674-6.209 16.152-14.691 17.968-16.981 3.635-35.686 5.642-55.22 5.642-20.158 0-39.296-2.139-56.709-5.998-8.613-1.908-14.76-9.503-14.691-18.323zm132.734 86.236l2.803 8.037 6.137-2.141c3.91-1.36 8.188.701 9.552 4.612a7.502 7.502 0 0 1-4.612 9.552l-13.21 4.608-.008.003-.005.001-13.213 4.609a7.503 7.503 0 0 1-4.94-14.164l6.136-2.141-3.275-8.912c-12.502 2.934-25.787 4.746-40.787 5.192v17.755H129c4.143 0 7.5 3.357 7.5 7.5s-3.357 7.5-7.5 7.5h-28c-4.143 0-7.5-3.357-7.5-7.5s3.357-7.5 7.5-7.5h5.667V181.35c-14-.51-27.912-2.387-40.373-5.381l-3.102 9.133 6.179 2.141c3.911 1.364 5.996 5.641 4.633 9.552a7.49 7.49 0 0 1-7.072 5.032 7.465 7.465 0 0 1-2.465-.42l-13.21-4.609-.006-.002-.011-.005-13.207-4.607a7.502 7.502 0 0 1 4.94-14.164l6.137 2.141 2.909-8.339C20.693 161.238 0 142.988 0 122.245c0-15.22 11.143-29.098 29.45-39.592-.033.769-.082 1.534-.095 2.307-.005.275-.013.544-.015.814-.122 15.74 11.019 29.654 26.494 33.084 19.024 4.216 39.21 6.353 60 6.353 20.151 0 39.759-2.01 58.279-5.975 15.352-3.286 26.553-16.998 26.553-32.603v-.186c0-1.199.128-2.392.078-3.583 18.091 10.469 29.172 24.262 29.172 39.382.001 20.939-21 39.341-52.826 49.879zm-97.757-22.713a6.917 6.917 0 1 0-13.834 0 6.917 6.917 0 0 0 13.834 0zm46.167 3.583c0-5.799-4.701-10.5-10.5-10.5s-10.5 4.701-10.5 10.5 4.701 10.5 10.5 10.5 10.5-4.701 10.5-10.5zm32.083 3.333a6.917 6.917 0 1 0 0-13.834 6.917 6.917 0 0 0 0 13.834z"/></symbol><symbol id="icon-draw-pin" viewBox="0 0 46.264 46.264"><path d="M31.33 1.657c-5.2-2.4-10.6-2.1-15.3.3-4.7 2.4-6.4 5.7-7.1 8-2 6.3.3 10.8 3 16.5 2.6 5.7 9.1 19.6 11 19.8s3.6-4 6.3-9.1c2.7-5.2 7.9-15.7 8.7-21.4s-1.4-11.8-6.6-14.1zm5.6 14.2c-.4-.2-5.4-6.2-5.7-6.3s-.8.1-.5.4 5.9 6.5 5.9 6.9-.3 1.8-.5 1.6-4.8-6.5-5.2-6.5c-.5-.1-.6.6-.3.8.3.3 5 6.3 5 6.6s.1.9-.2.9c-.3-.1-4.5-6-5-5.9-.5.2-.5.5-.3.8s4.8 5.9 4.8 5.9-.4 1.4-.7 1.3-3.8-5.2-4.3-5.2-.9.3-.5.8 4.4 5.2 4.3 5.5c-.1.3-.9 2.4-1.1 2.2-.2-.3-3.9-6.3-4.3-6.3-.4-.1-.5.1-.3.6s4.3 5.8 4.3 6.3c.1.5-.2 1.3-.5 1-.4-.3-4.2-5.9-4.6-6-.4-.1-.8.1-.5.5s4.7 5.9 4.5 6.2-.2 1.6-.5 1.2-4-5.9-4.3-5.9-.9.3-.5.7 4.5 5.6 4.4 5.9c-.1.3-.5 1.6-.8 1.3s-3.4-4.8-3.8-4.9-.8.2-.5.7 4 4.7 3.9 5c-.1.3.1 1.6-.6 1.1-.7-.6-3.3-4.3-3.8-4.3s-.8.4-.5.8 3.7 4.5 3.7 4.5-.4 1.1-.5.9c-.2-.2-3.1-4.4-3.6-4.5s-.7.2-.6.5 3.6 4.3 3.6 4.7-.1 2-.6 1.4-3-3.5-3.3-3.5c-.3.1-.7.1-.4.6s3.1 3.3 3 3.6c-.1.4-.4 1-.6.9-.2-.1-2.3-3-2.7-2.9s-.5.2-.4.6 2.6 2.8 2.5 3.1-.3.9-.6.5-2-2.4-2.2-2.4-.8.3-.5.6 2.5 2.7 2.4 3c-.2.3-.7 1.5-1.1 1-.5-.5-6.7-11.8-9.6-17.3-2.9-5.5-4.7-9.3-3.5-13.5 1.2-4.1 3.5-6.1 4.6-6.8 2.5-1.6 5.6-3.1 9.8-2.9 4.2.2 6.6 1.4 7.2 1.7.6.4.4.7.6.9.2.2 3.8 4.3 4.1 4.5s.6 2 .2 1.6c-.4-.4-5.4-6.5-6.2-6.6-.7-.1-.8.6-.5.8s6.7 6.6 7.1 7.2c.4.6.5 2.8.1 2.1-.5-.7-5.2-6.7-5.9-7-.7-.4-.9.6-.5.8s6.2 7 6.5 7.5c.7-.1.9.9.6.7zm-23.4-8.9c-1 .3-3 3.2-3.3 5.7s.6 5 1.1 5.2c.2.1.7.2.8-.5s-1-3.4-.9-4.9c.1-1.6 2.1-4.2 2.7-4.6.6-.3.7-1.1-.4-.9zm6.5.9c-2.1 1.6-1.9 4.4-.7 5.8 1.2 1.4 4.4 1.9 5.7.8s2.1-3.8.8-5.7-4-2.3-5.8-.9zm3.2 5.9c-1.4.4-2.1-.7-2.3-2.1s.6-1.6 1.4-2c1.2-.6 2.7.2 3 1.2.2 1.1-.8 2.5-2.1 2.9z"/></symbol><symbol id="icon-email" viewBox="0 0 50.685 50.685"><path d="M49.78 36.6c-.5-1.2-3.2-4.2-3.7-4.2-.6 0-1.5.9-2.2 1.3-.7.4-3.8 2.2-7.5 3.7s-6.2 1.9-8.6 2.2c-2.4.2-6.5-.1-10-2s-7-5.2-7.8-9.5c-.9-4.2.1-6.7 3.1-11.1 3.1-4.4 9.5-7.1 14.3-8s10.1.8 12.9 3.2c2.8 2.4 3 5.1 3.2 8s-2.3 4.7-3 4.9c-.6.2-1.1 0-1.4-.4s-.1-7.4 0-8.6c0-1.2-.7-2.1-1.3-2.1s-4.9-.3-5.5 0c-.6.2-.5 1.1-.5 1.1s-1.6-1-2.4-1.3c-.7-.3-4.7-.9-8.5-.1-3.8.9-6.1 4.1-7.2 6.5s-1.3 6.1.2 9c1.6 2.9 4.9 5.6 9.3 6.6s9-1.4 9-1.4 3.7.7 5.8.5 4.8-1.6 7.1-4.1c2.4-2.5 3.1-5.3 4.3-10s.2-7.9-1.3-11.2-4.9-6-7.9-7.3C37.28 1 33.28 0 27.58 0c-5.8 0-8.4.6-12.1 2.1-8.1 3.2-11.1 9-12.8 13.1S-.02 26.1.48 30s2.4 7.4 5.7 11.4 7.8 7.2 12.7 8.6 11.8.5 18.5-1.3c6.6-1.8 11.9-7.3 12.5-8.5.8-.9.4-2.4-.1-3.6zm-8.3 6.9c-.3-.3-3.4-5.3-3.6-5.2-.3.1-.7.3-.6.5.2.1 3.7 4.9 3.3 5.1-.4.2-.7.6-.8.3s-3.2-5.4-3.4-5.4c-.3 0-.7.4-.7.5.1.1 3.8 5.2 3.4 5.3-.5.1-.6.9-1 .3s-3-4.8-3.3-4.8-.8.4-.7.5 2.9 4.7 2.8 4.8-.8.6-.9.4c-.2-.2-2.7-4.7-3-4.8-.3-.2-.8.3-.7.4.1.1 2.9 4.6 2.7 4.7-.2.1-1 .4-1.1.2-.1-.1-2.4-4.4-2.9-4.4s-.8.2-.7.3 2.8 4.3 2.6 4.4-.9.4-1.1.2c-.1-.2-2.3-4.8-2.8-4.8s-.9.1-.7.4c.2.3 2.4 4.5 2.4 4.5s-.7.5-.9.1c-.3-.4-2.8-4.4-3-4.5s-.8 0-.6.2 3.1 4.4 2.7 4.4c-.4 0-.6.5-.9 0-.3-.5-2.7-4.1-2.9-4.1-.2 0-.7.1-.6.4s2.4 3.7 2.1 3.7c-.3 0-.7.3-.9 0s-2.6-4.2-3-4.2-.7.4-.7.5 2.9 3.5 2.3 3.6c-.5.1-1.1.3-1.3-.1-.1-.4-2-3.3-2.2-3.4-.3-.1-.8-.2-.7.1s2.4 3.3 1.7 3.3-.9.1-1.1-.3c-.2-.4-1.6-3.1-1.7-3.1s-.9.1-.7.5c.2.4 1.5 2.4 1 2.4s-7.1-2.3-11.3-6.6-5.4-7.4-5.8-10.9-.2-7.7 1.1-11.5 3.7-8 6.7-10.7 8.2-5.9 18.5-5.5c4.7.2 9.8.7 13.7 3.2 3.9 2.6 6 6 6.6 10 .5 4 0 7.3-1.4 10.8s-3.2 5.5-4.8 6.2c-1.6.6-5.4 1.3-6.1.7-.7-.6-2.6-4.8-3.1-4.7s-.5.5-.4.8 2.1 3.6 1.6 3.5c-.4 0-.6.1-.9-.4-.3-.5-2-5-2.4-5.1s-.9.1-.7.3 1.6 3.5 1.5 3.7c-.1.1-.3.7-.5.5s-1.5-3-1.7-2.9-.6.5-.4 1.1c.3.5 1.5 2.5 1.4 2.6-.1.2-.3.5-.5.2s-1.4-2.9-1.6-3c-.3-.1-.9.1-.7.5s1.6 3 1.6 3.1-.5.5-.7.2-1.3-2.7-1.6-2.7-.6.1-.4.6c.2.4 1.2 2.4 1.2 2.5s-.3.4-.6.1c-.3-.3-1.5-3-1.8-3s-.9.4-.7.7c.2.3 1.4 2.2 1.1 2.3s-.3.4-.6 0-1.3-2.2-1.6-2.2c-.3 0-.8.3-.6.5.2.2 1.4 1.9 1.1 1.9s-1.1 0-1.3-.2c-.2-.2-1.3-2.4-1.5-2.4s-.8.1-.6.4c.2.3 1 1.8.6 1.7s-3.5-1.2-5.4-3.3-2.2-5.7-1.7-7.6c.5-2 2.5-4.7 4.4-5.8s4.3-2 7.7-1.6c3.5.3 5.3 2.4 5.5 2.7s.5.5.9.6.3 0 .3-.4-.2-2.2-.1-2.3c.1 0 4.5 0 4.7.3s.1 3.5.2 5-.6 4.5.5 5.4 1.9.9 2.9.4 2.7-2.3 3-4.4c.4-2.1.8-5.9-2.4-9.3-3.2-3.4-6-4.9-9.5-5.8-3.5-.8-9.7.3-12.6 1.3s-8 4.8-9.8 8.8-1.9 9.2-1.5 11.4c.4 2.1 3.1 6.7 5.2 8.4 2.2 1.7 5.9 3.7 10 4.2 4.2.5 10.5-1.5 11.2-1.7.6-.2 3.1-1.2 3.4-1.1.3.1 3.5 5.2 3.5 5.3s-.3.6-.6.3zm4.2-2.8c-.2-.4-2.6-4.8-3-4.7-.3.1-.8.3-.6.5s3 4.6 2.9 4.8-.4.7-.8.4c-.3-.3-2.6-4.8-2.9-4.8-.3 0-.7.4-.7.6 0 .1 3 4.6 2.9 4.8s-.4.7-.7.5c-.2-.1-2.2-3.9-2.5-4.4-.4-.4-.7-.9-.6-1.1s3.4-2 3.7-1.9 3.3 4.8 3.2 5-.7.7-.9.3zm1.3-.8c-.3-.3-2.8-5.1-2.9-5.3-.1-.2.8-.4.9-.4.1 0 3.2 4.5 3 4.8-.2.3-.8 1.2-1 .9zm2.2-2c-.2.3 0 .8-.4.5s-2.7-4.4-2.8-4.5.1-.3.4-.2c.1 0 3 3.9 2.8 4.2zm-23.1-19c-2.7-.9-5.5-.3-6.7.6-3.1 2.4-2.4 5.4-.6 7.6s4.7 2 7.2 1.2c2.5-.7 3.3-2.7 3.5-4.5.3-1.8-.7-4-3.4-4.9zm-.4 8.7c-2.5.5-3.9.5-5.2-.6-1.3-1.2-1.1-3.7 1-4.8 1.2-.6 3.7-.8 4.9-.4 1.2.3 2 1.6 2 2s-.2 3.2-2.7 3.8zm-5.9-9.4c.4-.2-.2-.9-.5-.8-.3.1-1.7.8-2.7 1.7s-1.4 2.6-1.2 3c.1.3.7.2 1.1.1.4-.1.3-1.1.8-2s2-1.8 2.5-2zm-10.9-5.8c.5-.5.7-1.3-.1-1.1-.8.2-3.8 3.9-4.5 6s-1 4.5-.7 5h.8c.4-.1.2-.9.9-4 .8-3.2 3.1-5.4 3.6-5.9zm28 3.6c-.3-.3-3-.4-3.1-.1-.2.4.1.6.1.6s1.6.1 1.9.1c.3 0 .1 2.4.1 2.9s.4.3.8.3c.5-.1.6-3.5.2-3.8zm4.8 10.4c-.3.2-1.7.8-2.7.6s-1.5-1.5-1.7-1.4c-.8.3-.3 1.4.6 1.9s1.8.3 3 0 1.1-1.3.8-1.1z"/></symbol><symbol id="icon-github" viewBox="0 0 46.752 46.752"><path d="M46.462 19.29c-.5-3.3-1.9-5.9-3.7-9.2s-5.1-5.6-7.4-7.2c-2.3-1.6-5.5-2.4-8.6-2.7s-6.9-.3-9.5.4c-3.6.9-5.9 1.9-8.3 4.1-2.4 2.2-4.2 4.4-5.8 6.9-1.5 2.5-2.7 6.3-2.9 8.2s0 4.4.6 7.3c.7 2.9 2.1 5.6 4.3 8.9 2.1 3.3 5.1 5.3 8.5 7.4 3.4 2.1 10.7 3.7 13.4 3.3s6.5-1.3 10.4-4.4c3.9-3.1 6-8.1 7.2-11.3 1.4-3.2 2.2-8.4 1.8-11.7zm-5.5 14.3c-.1 0-1.6-2.7-1.7-2.9-.1-.2.6-1.4.7-1.4.1 0 1.6 2.8 1.6 2.9s-.5 1.4-.6 1.4zm-5.7-17.9c-.1-.2-.1-.4-.1-.4 0-.1.5-1.2.3-2.2-.1-1-.6-2.6-.5-2.6s1.8 1.4 2.8 3.6c1 2.3 1.9 4 2.2 7.1s.2 5.3-.9 7.4c-1.1 2.1-1.9 3.2-2.5 3.9-.6.6-1.9 1.2-2 1.2s-.7-2.7-1.1-3.6c-.4-.9-1.2-2-1.2-2.2 0 0 1.3-1.1 1.7-1.8s1.9-3 1.8-5.7c0-2.6-.4-4.5-.5-4.7zm6.9 15.6c-.1.1-1.9-3-1.8-3.1.2-.2.7-1.8.8-1.8s1.8 3 1.8 3.2-.6 1.6-.8 1.7zm2.3-8.3c-.2-.2-1.6-3.3-1.8-3.4-.2-.1-.6.7-.5.9s2 3.3 2 3.6c.1.3-.1 1.7-.2 1.5-.1-.2-1.4-2.9-1.6-2.9-.2 0-.6.6-.6.7 0 .1 1.8 3.5 1.8 3.7s-.3 1.6-.4 1.3-1.9-3.2-2-3.3c0-.1 0-4.1-.2-5.9-.2-1.8-.9-5.4-3.4-8.3-2.5-2.9-5.2-4.9-9-5.8-3.8-.9-6.2-.9-9-.7-2.9.1-7 1.8-9.9 5.9-2.8 4.1-3.3 5.2-3.9 8.2-.6 3 .1 7.3.6 9.2s1.9 4.7 3.4 6.1c1.5 1.4 3.5 2.3 5 2.9 1.5.6 3.8.9 4 .8.2-.1.1-2.4 0-2.7s-.2-.4-.8-.4-1.7 0-2.5-.3c-.7-.3-1.3-1-1.8-1.8s-1-1.7-1.3-2c-.3-.4-1-1-.9-1.1s1.3-.2 2.2 0c.9.3 2.4 1.3 3 1.7s1.5 1 1.7 1c.3 0 .9-1.3 1.1-1.7.3-.3.8-1.4.6-1.6-.3-.2-1.8-.3-2.6-.5s-2.2-1-3.2-2.3-1.4-3.2-1.4-4.6c0-1.4 1.3-4 1.6-4.5s.6-1 .5-1.2c-.2-.2-.9-1.2-1.1-1.9-.2-.7.4-2.4.6-2.5.1-.1.9.2 1.5.2.6.1 2 .5 2.5.8s.7.5 1 .5 2.5-.5 3.3-.7 3-.4 3.8-.3c.8.2 2.1.9 2.3.8.2-.1.7-1.1 1.8-1.4 1.1-.3 2.9-.4 3.1-.2.2.2.5 2.1.4 3.1-.2 1-.5 1.6-.3 1.8.2.3 1 2.1.6 3.7s-1 3.9-3 5.4-2.7 1.8-2.9 1.9c-.2.2 0 .6.2.8s1.7 1.2 2.4 3.4.8 3.5.8 4 .5.6.9.6c.4-.1.9-.4 1.5-.9s2.5-1.8 2.7-1.8c.1.1 1.3 2.5 1.6 2.6s.5-.1.5-.3-.9-2-1.2-2.5-.4-.8-.4-.9c.1-.2.6-.8.8-.7.1.1 1.4 2.1 1.6 2.4.2.3.4.4.2.8s-1.1 1.5-1.5 1.8c-.4.4-.6.8-.8.6s-1.4-2.3-1.6-2.3c-.2 0-.7.4-.6.6s1.6 2.4 1.6 2.5-.8 1.1-1.6 1.7c-.8.6-1.3 1-1.5.8s-1.7-3.9-2-3.9-.8.1-.7.4c.1.3 2 3.7 2 3.9s-.6.6-.8.4c-.2-.2-2.2-4.4-2.5-4.4s-.7.1-.7.5 2.6 4.1 2.5 4.3-.6.7-.8.5-2.6-5-2.8-5-.8.1-.8.3c0 .1 2.7 5.2 2.7 5.3s-1.1.6-1.3.5-2.6-5.4-2.8-5.6c-.2-.1-.9.4-.9.5.1.1 2.9 5.1 2.8 5.3s-.8.3-.9.2c-.1-.1-2.8-5.3-3-5.3-.2-.1-.8.2-.7.5s2.9 4.9 2.8 5c-.1 0-.8.1-.9 0s-2.6-3.9-2.9-4-.7.4-.7.5 2.3 3.5 2.2 3.5-.9 0-1.1-.1c-.2-.1-1.8-3-2-3-.2-.1-.7.3-.7.5.1.2 1.6 2.3 1.4 2.3s-.7 0-1-.1c-.2-.1-1.3-2.4-1.5-2.5s-.6.2-.6.3.9 1.7.7 1.7-.8 0-.9-.1c-.2-.1-1.2-1.8-1.3-1.9s-.6.2-.6.4c.1.2.5.9.4.9-.2 0-3.6-.9-5.5-2.2s-5.3-5.2-6.4-6.4c-1.1-1.2-2.6-4.8-3.1-6.7s-.7-4.8-.6-6.3c0-1.5 1.2-5.5 1.9-6.9s3.3-5.1 5-6.8 4.6-3.9 7.6-4.7c3-.9 5.5-1.1 6.9-1.1 3.3 0 7 .5 9.3 1.3s6.6 4.1 7.6 5.3 2.3 3.4 3.1 5 1.3 2.9 1.2 2.8-1.1-1.8-1.3-1.7c-.2 0-.6.3-.5.5s1.8 2.9 2 3.2.3.7.4.8c0 .1.2 2.4.2 2.3-.1-.1-1.7-3.1-1.9-3.2-.2-.1-.4.3-.3.3.1.1 2.3 3.9 2.3 4.1s.1 1.9-.2 1.7zm-30.5-7.2c.4.3-.5.9-1 2.1-.6 1.3-1.1 3.7-.8 5.2s1 3.3 2.6 4.7 3.8 1.5 4 1.6-.4 1-.5 1.1c-.1.2-.1.1-.4 0s-2.2-1.7-4.1-2.1c-1.9-.4-3.1.2-3.5.5-.4.4.1 1 .6 1.4s1.2 1.2 2 2.6c.8 1.4 1.3 1.8 2.6 2.2s2.3.5 2.5.5.2.6 0 .8c-.1.2-.7-.3-1.4-.6-.8-.2-2.2-.4-3-.9s-3.4-3.5-3.9-4.9c-.5-1.3-1.5-4.3-1.5-5.8s-.1-4.1.5-6 1.9-5.1 3.9-7.3 4.8-3.9 9-4.3c4.2-.5 7.9.8 10.2 1.6s2.8 1.3 2.8 1.4c0 0-.7.1-2.5.3-1.8.1-3 1.1-3.1 1.2-.1.1-1.9-.3-3.9-.5-1.9-.2-4.6.7-4.7.7s-.4 0-1.1-.3c-.7-.3-4.2-1-4.6-1-.4 0-1.3 1.1-1.5 2.8-.3 1.8.5 2.7.8 3zm13.7-14.2c-3-.4-4.9-.2-5.1-.1-.3.3-.2.8.2.9.4.1 2.2-.2 4.5 0 2.4.2 4.1 1.1 4.5 1.1s.6-.6.4-.8c-.2-.2-1.5-.7-4.5-1.1zm-22.3 11.2c-2.4 2.5-2.8 5.7-3 6.8s.5 1.6.9 1.4 0-1.1.8-3.6 1.8-3.4 2.1-4c.2-.5-.6-.8-.8-.6zm11 9.6c-.3-.7-.1-1.6.1-2.4s-.6-.8-.8-.6c-.5.5-.7 2-.5 3s1 2.4 1.5 2.6c.5.2.9-.1.8-.5-.1-.5-.8-1.4-1.1-2.1zm-2.7 7.7c-.7.5 0 1 .3 1s.6-.1.5-.6c-.2-.4-.6-.5-.8-.4zm1.5 1.4c-.5.3-.1 1 .3 1s.6-.3.7-.6c.1-.3-.8-.6-1-.4zm2.1.9c-.8.2-.5.9-.1 1s.7-.1.8-.5c.1-.4-.2-.6-.7-.5zm13.5-19.3c.2 0 .7.1.9.1s.2 1.4.3 1.8c.1.4.7.4 1 .2.2-.2-.1-2.5-.3-2.7s-1.8.1-2 .1c-.1 0-.1.4.1.5zm4.5 26.6c.2 0 .6-.2.6-.4 0-.3-1.3-3.3-1.4-3.4-.1-.1-.9.2-.9.3.1.3 1.5 3.5 1.7 3.5z"/></symbol><symbol id="icon-home-nav" viewBox="0 0 142.61 151.38"><g class="cls-2"><path d="M466.75 328.32c-3.53-.32-7.19.84-10.66 1.47l-1.67.29a56.67 56.67 0 0 0-5.5-31.66c-1.37-2.75-5.85-1-5.18 1.89a54.56 54.56 0 0 0-11.18 11.06c-16.39-6.75-34.84-3.24-52.18-1.82-9.48.78-14.71-14.19-23.53-17.32a.42.42 0 0 0 0 .06c-1.26-.23-2.77.57-2.56 2a59.69 59.69 0 0 0-3.59 40.92c-3.64.19-7.29.57-10.87.62a2.38 2.38 0 0 0-1.19 4.4c2.68 1.55 5.28 1 8.22.57 1.79-.28 3.58-.59 5.37-.9a55.36 55.36 0 0 0 2.23 5.17l-2.25.82c-3.15 1.14-6.55 2.16-9.38 4-1.95 1.26-1.39 5 1.28 4.72 4.41-.4 8.84-2.45 13-4.75a55.28 55.28 0 0 0 4.61 6.34c-.58.33-1.16.66-1.75 1-3.14 1.64-6.4 3-9.52 4.67-2.4 1.3-.67 4.62 1.75 4.16 4.38-.82 8.92-3.2 13-6.06a57.68 57.68 0 0 0 34.13 16c18.45 2.19 33.45-5.1 43.2-16.94.83.31 1.65.64 2.48.94 3.28 1.22 6.52 2.88 10.09 2.78 1.67 0 3.08-2.43 1.51-3.65-2.68-2.09-5.64-2.66-8.9-3.47l-2.21-.56a54.49 54.49 0 0 0 4.1-7.32 79 79 0 0 0 9.16 2.25c2.38.36 4.22-2.86 1.76-4.16a30.42 30.42 0 0 0-9.02-2.84 57.37 57.37 0 0 0 2.17-8.1l1.35-.13c4-.35 8.6-.13 12.38-1.6a2.46 2.46 0 0 0-.65-4.8zm0 0" transform="translate(-328 -225)"/><path d="M468.44 279c-12.7-12-28.44-19.7-41-32-7.63-7.5-21.64-21.93-33.26-21.93-12.62 0-25.57 17.31-33.36 25.2-10 10.07-25.9 21.55-32.2 34.61-2.73 5.66 4 11.26 8.79 6.78 18.31-17 36-36.88 55.9-52 5.37-4.07 27.26 20 31.15 23.75 10.18 9.93 23.5 16 34.19 25.37 6.65 5.83 16.32-3.6 9.78-9.78zm0 0" transform="translate(-328 -225)"/></g></symbol><symbol id="icon-javascript" viewBox="0 0 51.52 68.66"><g class="cls-2"><path class="cls-3" d="M424.18 283.41c-.18-4.41-.18-10.32-.18-14.72a2.05 2.05 0 0 0-.07-.53 1.66 1.66 0 0 0-1.7-1.94c-15.48.41-31-.2-46.45-.22a1.73 1.73 0 0 0-1.69 2.13 1.82 1.82 0 0 0-.09.57c.23 18.48.87 45 .89 63.5a1.73 1.73 0 0 0 .3 1 1.6 1.6 0 0 0 1.7 1.45c6.69-.17 13.39-.27 20.07-.6 6-.29 13.39.1 19.08-1.85a14.35 14.35 0 0 0 5.37-3.18c2.82-2.7 3.79-6.32 4-10.13.24-3.66-.2-7.5-.28-10.87-.22-8.72-.69-15.9-1-24.62zm-9.8 33a1.59 1.59 0 0 0-1.66 2.16c1 2.63 1.43 5.89-.08 8.41-1.82 3-5.07 3-8.16 3.35-1.89.24-3.89.11-5.8.17-1.48 0-20.25.5-20.25.57 0-17.79-.63-43.64-.87-61.43 14.3.06 28.59.55 42.88.25-.06 14.6 1.24 35.71 1.32 47.25a18.52 18.52 0 0 0-6.87-.84 1.82 1.82 0 0 0-.51.11zm1.4 12.16a11.73 11.73 0 0 0 1-8.7 14.33 14.33 0 0 1 5 1.09v.06a9.35 9.35 0 0 1-6.11 7.55zm0 0" transform="translate(-374 -266)"/></g><path class="cls-3" d="M398.37 287.33c-3.69.13-7.37.26-11.07.27a1.8 1.8 0 0 0 0 3.6c1.56 0 3.12 0 4.67-.07a30.76 30.76 0 0 1 1 8.07 5.25 5.25 0 0 1-.79 3.14c-.77.92-2.59-.11-3.36-.5-2.07-1.05-3.89 2.05-1.82 3.11 3.74 1.9 7.75 1.8 9.15-2.73 1.07-3.46.3-7.67-.55-11.21l2.71-.09c2.31-.08 2.32-3.68 0-3.6zm0 0M406.21 291.73c-.35-.72-.19-1.26-.43-1.09 1-.73 3.19-.24 4.33-.11 2.3.28 2.28-3.33 0-3.6s-6.07-.62-7.44 2c-1.09 2.07.26 4.52 1.32 6.29 1.3 2.19 2.94 4.19 4 6.5a6.34 6.34 0 0 1 .26.82c-1.12.59-3.52-.09-4.64-.31-2.27-.42-3.24 3.05-1 3.47 2.44.45 6.47 1.39 8.41-.82 1.66-1.89.41-4.47-.66-6.31-1.34-2.32-3.07-4.4-4.24-6.82zm0 0" transform="translate(-374 -266)"/></symbol><symbol id="icon-portfolio-nav" viewBox="0 0 74.62 68.35"><g class="cls-2"><path class="cls-3" d="M434.9 285.72a2.66 2.66 0 0 0-2.17-2.44 2.56 2.56 0 0 0-.76-.17q-6.73-.31-13.47-.55c-6-5.6-12.39-10.72-18.91-15.7a1.95 1.95 0 0 0-3.24 0c-6.59 5-13 10.31-19.58 15.35-3.77.09-7.54.2-11.3.38a2.49 2.49 0 0 0-2.34 2.5 3.15 3.15 0 0 0-.1.63c-.72 14.34-1.19 28.69-1 43.06a2.9 2.9 0 0 0 .12.77 2.7 2.7 0 0 0 2.33 3.15c23.41 1.9 47 2.81 70.32-.87a2 2 0 0 0 1.75-2.43 3.07 3.07 0 0 0 0-.61c-.46-14.36-.33-28.75-1.71-43.06zM398 270.63c4.92 3.76 9.75 7.63 14.38 11.74-9.65-.27-19.3-.39-28.95-.28 4.86-3.82 9.67-7.7 14.57-11.46zm-31 57c-.16-13.32.25-26.64.89-39.94 20.8-.85 41.61-.41 62.41.53 1.09 12.9 1.08 25.86 1.45 38.8-21.43 3.15-43.23 2.29-64.75.61zm0 0" transform="translate(-362 -266)"/></g><path class="cls-3" d="M427.32 291.62a2.62 2.62 0 0 0-2.32-1.92c-17.44-.76-34.9-1.13-52.34-.39a1.89 1.89 0 0 0-1.84 1.84 2.24 2.24 0 0 0-.08.47c-.57 10.58-.93 21.16-.77 31.75a2.1 2.1 0 0 0 .09.57 2 2 0 0 0 1.83 2.32c18.42 1.4 37 2.07 55.35-.64a1.53 1.53 0 0 0 1.38-1.79 2.39 2.39 0 0 0 0-.45c-.36-10.59-.26-21.2-1.35-31.75zm-53.5 30.93c-.13-9.82.19-19.64.7-29.45 16.37-.62 32.75-.3 49.12.39.86 9.51.85 19.07 1.14 28.61-16.86 2.32-34 1.69-51 .45zm0 0" transform="translate(-362 -266)"/><path class="cls-3" d="M422.25 317.21a37.69 37.69 0 0 0-8.57-10.4 2 2 0 0 0-2.5-.07 3.22 3.22 0 0 0-.41.26c-1.84 1.42-3.63 2.89-5.41 4.38a57.51 57.51 0 0 0-5.34-8.23 1.92 1.92 0 0 0-2.72 0 107.74 107.74 0 0 0-10.88 14.63 1.65 1.65 0 0 0-.19 1.6 1.94 1.94 0 0 0 1.85 2.07c6.41.34 12.83.19 19.24 0 4.42 0 8.84 0 13.26-.19a2 2 0 0 0 1.8-2.47 1.79 1.79 0 0 0-.14-1.58zm-31.2.52a100.59 100.59 0 0 1 7.48-10.19 65.2 65.2 0 0 1 5.72 10.15c-4.41.11-8.8.17-13.21 0zm17.38-.12c-.42-.91-.84-1.82-1.28-2.72q2.53-2.13 5.12-4.18a34.7 34.7 0 0 1 5.64 6.79c-3.16.08-6.32.11-9.48.11zm0 0M389.66 302.79a5.38 5.38 0 0 0-1.31-4.72 5.49 5.49 0 0 0-5-1.86 5.55 5.55 0 0 0-4 7.84c1.11 2.36 5.34 3.34 7.53 2.37a5.24 5.24 0 0 0 2.79-3.64zm-3.85-.63a1.46 1.46 0 0 1-2.5.07 1.7 1.7 0 0 1-.33-1.06c0-2.59 3.92-.82 2.83 1zm0 0" transform="translate(-362 -266)"/></symbol><symbol id="icon-post" viewBox="0 0 46.617 46.617"><path d="M46.572 30.308c.1-2.3-.5-19.9-.6-21.5s-3-2.1-4.5-2.1-5.1.2-5.8.2-7.8-.1-12.7 0c-5 .1-16.1.2-18.1.2s-4.1.3-4.4.6c-1 1.4-.1 10.7-.1 17.1s.3 9.9.6 10.8 1.4 3.3 1.8 3.7c.4.4 1.2.3 4.1.4 3 .1 3.2.2 10.2.2s14.2-.2 20.4-.4 6.7-.3 8.2-1.3c1.4-1.2.8-5.6.9-7.9zm-1.1-8.6c-.2-.2-1.6-2.3-1.8-2.3s-.2.6-.2.8c.1.3 1.9 2.3 1.9 2.4 0 .2.1 1.5.1 1.4-.1-.1-1.5-2.6-1.8-2.5-.3.2-.3.7-.3.9s2.1 2.4 2.1 2.6c0 .3.1 1.5 0 1.3-.1-.3-1.7-2.8-2-2.6s-.3.6-.2.9c.1.3 2.1 2.5 2.1 2.8s.2 2 0 1.9-1.5-2.7-2.1-2.9c-.6-.1-.7.3-.4.6.3.2 1.3 2 1.5 2.5.3.5 1 1.2 1 1.3 0 .2.1 2.3-.1 2.2s-1.2-2.7-1.9-3.5-1-1.2-1.2-1-.1.6.1.9c.2.3 2.1 3.3 2.2 3.6.2.3.3.5.2.7s-.3.4-.3.6-.1.2-.1.1c0-.2-2.4-3.7-2.8-4.3s-.5-.7-.8-.6c-.4.2 0 .7.2.9.1.2 3.2 4.5 3.2 4.9s-.4.7-.6.6-3.1-4.8-3.5-5.5c-.4-.6-.6-.6-.8-.4-.2.3.3.8.7 1.4.4.7 2.3 3.8 2.6 4.1s.3.7.3.7-.8.3-1 .1-3.5-5.6-3.7-5.6-.5.4-.5.5c.1.1 3.5 5.1 3.2 5.2-.3 0-1.2.2-1.4 0s-2.4-4.3-2.8-4.3c-.4 0-.6.6-.6.7s2.5 3.5 2.3 3.6-.7.3-1 .1-2.3-4.2-2.5-4.3-.9.3-.7.5 2.6 4 2.2 4c-.4 0-.9.1-1-.1-.2-.2-2.2-3.7-2.5-3.7-.2-.1-.7.1-.6.4s2.7 3.5 2.3 3.5-1.4.2-1.6 0c-.2-.3-1.9-3.4-2.3-3.5-.3-.1-.6.3-.5.5s2 3 1.7 3c-.2 0-1.2.1-1.3-.1-.2-.1-1.5-3-1.8-3s-.6.3-.6.5c.1.2 1.6 2.6 1.3 2.6-.3.1-.8.1-1.1-.1-.2-.2-1.7-2.7-2-2.7-.3-.1-.8.2-.7.4s1.6 2.4 1.4 2.4c-.3 0-1.2.1-1.3 0s-1.7-2.2-1.9-2.3-.7.1-.6.3c.2.2 1.6 1.9 1.3 1.9-.3.1-7 .3-11.4.4-4.4.1-6.9.1-8.6-.2s-2.3-.8-2.7-1.2c-.4-.3-.7-3.7-.7-7.4-.1-3.6-.3-12-.4-14.1-.1-2.1-.2-4.7.1-5.2.2-.3 1.9-.4 7.6-.6 5.6-.3 11.3-.2 18.7-.3s11.2-.2 13.1-.1 3.9.4 4.3 1.1c.4.7.5 6.1.4 6-.2-.1-.9-1-1.1-.8s-.4.5-.2.7 1.3 1.1 1.4 1.4c0 .3.1.8 0 .6s-.9-1.2-1.1-.9c-.2.2-.4.6-.2.8s1.3 1.4 1.4 1.7c.1.3 0 .9-.1.7s-1.3-1.9-1.6-1.7c-.3.3-.2.9-.1 1 .1.1 1.8 1.7 1.8 1.8s.6 1.5.4 1.3zm-35.9-8.3c.6.6 5.1 4.3 8.3 6.7s4.1 2.7 6.4 2.6c2.3-.1 3.7-1 5.8-2.3 2.1-1.2 8-7 8.8-8.1.8-1 .3-1.2-.3-1.4-.5-.2-2.6-.2-9.9-.1-7.3.2-15.8.2-17.5.3s-2.8.2-2.9.4c-.3.6.8 1.3 1.3 1.9zm14.5.2c5.5 0 11.8-.3 12 0s-4 4.3-6.6 5.9c-2.6 1.6-3.8 2.3-6.1 2s-6.7-4.1-8.3-5.3-2.7-2.1-2.6-2.3c0-.2 6.1-.3 11.6-.3zm17.5-.7c-.7-.1-3 2.8-4.5 4.7-1.5 1.8-3 3.8-3.1 3.9-.2.5.4.6 1.8 1.9 1.5 1.3 3.3 3.9 4 4.8.7.9 1.2 1.1 1.7.7.5-.4.4-.8.5-2.5s.2-7.8.3-10.3 0-3.1-.7-3.2zm-.5 14.7c-.3-.2-2.4-3.2-2.9-3.6-.5-.5-1.4-1.1-1.4-1.5 0-.2 4.4-5.5 4.6-5.3.1.1 0 10.5-.3 10.4zm-6.6-1.4c-1.1-1.3-1.8-2.6-2.6-2.6s-2.3 1-3.6 1.8c-1.3.9-2.4 1.4-3.5 1.4s-3.8-1.4-4.1-1.6c-.4-.3-2.2-.9-2.6-.8-.9.1-5.3 6-5.7 6.5s.6 1.4 1.2 1.5 2.3 0 10.2-.3c8-.3 11.8-.6 12.5-.8s.7-.8.6-1.3c-.2-.6-1.3-2.5-2.4-3.8zm1.2 4c-.2.2-5.6.6-12.5.9-6.9.3-8 .2-7.9.1s3.6-4.2 4-4.2c.2 0 3.9 1.8 5.5 1.8 1.6.1 3.5-.7 5.1-1.8 1.6-1.2 2.4-1.8 2.7-1.7.3 0 2.3 2.9 2.7 3.7.4.6.5 1 .4 1.2zm-23.5-11.2c-1.6-1.6-5.7-5.1-6.1-5-1.9 0-1.3 3-1.2 6.8s.7 8.8 1 10.1 1.3 1.3 2 1.1c.8-.2 1.4-1.2 2.9-3.2 1.5-1.9 3.8-5.1 4-6.4.2-1.4-1-1.8-2.6-3.4zm-3.2 10.5c-.7.8-.6.9-.8.8-.2 0 0-7.6-.1-9.1s-.2-3-.1-3.3c.1-.2 2.4 1.8 3.6 2.8s1.9 1.6 1.9 1.9c.1.3-3.8 6-4.5 6.9zm16.5-5.9c-1.2.2-2.6-.2-2.9-.3-.5-.1-.6.6-.3.9.3.3 1 .5 2.9.5s3.1-.8 3.3-1.1-.1-.8-.5-.9c-.3-.1-1.3.7-2.5.9zm-21 11.1c-.3-.3 0-1.9-.2-2.2s-.9-.3-1 0c-.2.4-.1 1.7.1 2.4s.7 1.1 1.4 1 .7-.8.6-1c0-.1-.6 0-.9-.2zm-1-23.5c.2-.6 1.1-.6 1.4-.7.3-.2.3-.1.3-.4-.1-.3-.4-.7-1.4-.5s-1.5 1.1-1.5 1.9 0 2.5.2 2.6c.4.2.8.2.9 0 .2-.2-.1-2.3.1-2.9zm40.2-.8c.2-.2.3-.4-.3-1.3s-2-1.2-2.3-1.1c-.8.4-.4 1.3.4 1.3s1.1.9 1.3 1.2.7.2.9-.1z"/></symbol><symbol id="icon-skype" viewBox="0 0 45.031 45.031"><path d="M44.843 28.584c-.2-1.4-2.4-5.3-2.4-5.3s.1-1.7-.5-4.4-2.1-5.5-6.3-9.6c-4.3-4.1-12.8-4.4-12.9-4.4s-1.1-1.4-2.7-2.4-5.2-2.5-10-1.1c-4.8 1.3-7.1 4.7-8.2 6.7s-2.5 4.9-1.5 8.7c.9 3.8 3.6 5.7 3.6 5.7.6 6.9 2.8 11.2 4.7 13.8 1.9 2.6 5.4 5.1 8.8 6.5 3.3 1.4 11.8.5 11.8.5 2.4 1.2 4.9 1.1 7.6.5s5-3.1 6.9-6.9c1.7-3.8 1.3-6.9 1.1-8.3zm-1.7 1.6c-.1-.1-5.9-6.9-6.2-6.8-.3.1-.4.5-.2.7.2.1 6.3 6.6 6.4 6.8 0 .2 0 1.8-.1 1.7-.1-.1-6-6.5-6.2-6.4s-.4.4-.2.7c.1.3 6.3 6.2 6.3 6.5s-.5 2.1-.8 2c-.3-.2-5.9-6.9-6.1-6.7s-.4.5-.1.8 6.1 6.3 6.1 6.4c0 .2-.8 1.7-1 1.6-.2-.2-6.2-7.3-6.5-7.2-.3.1-.4.5-.2.7.1.2 6.5 6.7 6.4 6.9-.1.1-1.1 1.1-1.4.9-.3-.1-5.9-6.9-6.1-6.8-.2.1-.5.7-.4.8.1.1 6.1 6.2 6 6.3-.1.2-1.4 1.2-1.5 1-.2-.1-6-6.3-6.1-6.3s-.5.4-.3.6 6 5.8 5.8 6-1.6.7-1.8.6c-.2-.1-4.6-5-5-5s-.6.5-.3.7c.3.2 4.5 4.5 4.2 4.5s-1.8 0-2.1-.2c-.3-.1-3.6-4.5-3.9-4.4-.3 0-.6.4-.3.7.3.3 3.1 3.5 2.8 3.5-.3 0-1.3-.6-1.4-.6h-.7s-2.9-3.2-3.1-3.2-.7.3-.6.4c.2.1 2.8 2.7 2.6 2.9-.2.2-1.3.4-1.5.2-.1-.2-2.6-2.9-2.9-2.8s-.8.2-.5.5c.3.2 2.7 2.4 2.3 2.5-.4 0-1 0-1.2-.1s-2.7-2-3.2-2-.9.3-.6.5 2.2 1.3 1.8 1.4c-.4.1-3.5-.5-5.6-1.3s-4.7-2.6-6.5-4.9-2.9-5-3.2-7.2c-.4-2.2-.7-4.8-.7-4.8s-2.9-2.5-3.6-4.8-.6-5.5 1.3-8.6 5.4-6.2 8.1-6.7 7.9.3 9.6 1.8 2.1 2 2.1 2 8.7.8 11.6 3.4 3.1 2.9 3.1 2.9-1-.8-1.2-.6c-.1.2-.2.6.5 1.3.8.8 1 1.4 1.3 1.3s.1-.7.1-.7 2.1 2.6 2.3 3.7c0 0-3.4-3.5-3.6-3.3s0 1 .3 1.2c.2.2 3.7 3.2 3.8 3.3.1.2.6 2.6.4 2.1s-4.4-4.3-4.6-4.1c-.2.1-.3.5-.2.7.2.2 4.8 4.1 4.9 4.3 0 .2-.1 2.1.2 2.3.2.3.9 1.6.8 1.5-.1-.2-5.7-5.7-6-5.7s-.4.4-.3.5 6.6 5.9 6.6 6.1.4 1.3.5 2.3c0 .9-.1 1.8-.2 1.7zm-36.3-21.8c-.9.4-2.5 1.7-3.4 3.5s-.8 4.2-.5 4.4c.5.4.9-.1.9-.7s0-2.3.7-3.6 2.5-2.6 3.2-2.9.8-.6.6-.9c-.2-.3-.5-.2-1.5.2zm4.6 6.7c-.6.5-1.4 2.1-1.5 3.3-.1 1.2.6 2.4.9 2.5.4.1.7-.1.8-.4.1-.3-.4-1.1-.5-1.8s.7-1.7 1-2.5c.4-.9-.1-1.6-.7-1.1zm18.7-5.1c-.3.1-.6.3-.5.6.1.3 1 .8 2.3 1.6 1.3.8 1.5 3 1.7 3.4s.5.2.8 0 .1-.7-.9-2.9c-.9-2.2-3.1-2.8-3.4-2.7zm-1.2 3.1c-3-1.8-6.9-1.6-9-1.3-2.7.4-5.4 1.9-6.3 4.8s1 5.3 2.2 6.3c1.1.9 5.3 2.1 6.9 2.7s2.3 2.1 1.9 2.9c-.4.9-1.2 1-3.3.7-2.1-.3-4.7-2.8-6.6-3.1-2-.3-2.4 1.8-2.2 3.4.2 1.5 1.8 3.4 4.6 4.6 2.8 1.1 6.5.8 9 0s4.4-2.4 5-5.5c.6-3.2 0-4.2-2.1-5.5-2-1.3-7.2-2.1-8.6-2.6s-1.3-2.3-.7-2.8c.6-.6 3.2-1.4 4.1-1.1 1 .3 3.6 2.8 4.9 3.3 1.2.5 2.5-.9 2.8-1.9.4-1 .3-3.1-2.6-4.9zm1.6 5c-.3.8-1.3 1.5-2.8.2-1.5-1.2-2.5-3-4.8-2.8-2.4.2-3.9 1.2-4.3 2.2-.4.9-.3 3 1.2 3.7s5.9 1.5 7.9 2.5c2 .9 3.1 1.4 2.3 4.4-.9 3-2.1 4.6-5 5.3-3 .7-5.8.5-7.5-.2-1.6-.7-2.9-2.2-3-3s-.1-2.2 1.4-1.4c1.5.8 3 2.4 6 2.2s4.4-1.1 4-3-1-2.8-2.9-3.5c-1.9-.8-5-1.7-6.3-3s-1.1-4-.2-5.2 2.5-2.6 6.5-2.5c1.5 0 4.1.2 6.1 1.3 2 1.2 1.8 1.9 1.4 2.8z"/></symbol><symbol id="icon-tel" viewBox="0 0 49.923 49.923"><path d="M45.115 4.223c-1.7-2.6-4.8-4-6.6-4.2-1.7-.2-3.4.9-5.6 3.1-2.2 2.3-6.6 7-7.3 8.1s-1.8 2-1.5 4.1 1.4 3.3 2.9 4.5 4.3 2.1 5 2.6 1 1.5.7 2.6-2.4 3.4-4.1 4.6c-1.7 1.2-2.8 1.7-3.9 1.3-1.2-.3-2.2-1.2-4.4-3.6-2.2-2.3-4-3.8-5.8-4.1s-4.5 2.1-7.1 5.1-5.5 7.1-5.5 7.9c-.1.8.8 4.8 1.1 5.6.3.8 2.7 2.8 2.7 2.8s-.9.5-1 .8.2 2.4.4 3.1c.2.7 1.7 1.4 2.3 1.4.5 0 3-2.6 3-2.6s3 .7 8.2.4 7.8-2.8 13.3-7.1c5.4-4.3 9.2-9.6 12-15s4.1-10.1 4.1-12.8c0-2.7-1.2-6-2.9-8.6zm-2.9 6.3c.4.3 4.3 3.3 4.4 3.6s.4 1.7-.1 1.4-3.7-3.5-4.3-3.2c-.7.3-.4.6-.1.8s4 3.1 4.1 3.4c.1.3-.2 1.1-.4.8-.2-.3-4-3.4-4.3-3.3s-.7.3-.3.7 4.4 3.3 4.5 3.6c.1.4-.1 1-.4 1-.3-.1-3.9-3.2-4.2-2.8s-.5.6-.2.9c.3.3 3.9 2.6 4 2.9.1.2-.3 1.4-.6 1.1-.3-.3-3.5-2.8-3.8-2.7s-.3.8 0 1c.3.3 3.3 2.3 3.3 2.5s-.3 1-.5.9-3.2-2.7-3.6-2.5-.4.7-.2.9c.3.1 3.3 2.1 3.4 2.3s-.3 1.2-.5 1-3.1-2.4-3.5-2.3c-.4.1-.4.5-.2.7.2.2 3.2 2.1 3.1 2.3s-.4 1.1-.6 1c-.2-.2-3.7-2.6-4-2.5s-.5.7-.3.8 3.9 2.3 3.9 2.5c-.1.3-.6.9-.7.8-.1-.1-3.2-2.3-3.5-2.3-.3.1-.7.6-.4.8s3.3 2.2 3.3 2.3-.5 1.2-.6 1c-.2-.2-3.2-2.8-3.5-2.7s-.5.3-.3.6 3.1 2.6 3 2.8-.5 1.2-.8 1-3.1-2.7-3.4-2.6c-.3.1-.6.5-.3.8.3.2 3.3 2.3 3.1 2.6-.3.3-.3.9-.7.7-.4-.2-2.9-2.4-3.2-2.3s-.9.4-.6.7c.4.2 3.5 2.1 3.2 2.5s-.4.9-.6.8c-.2-.2-3-2.9-3.4-2.7s-.7.3-.5.6 3.4 2.5 3.3 2.8-.4.8-.7.7-3.3-2.9-3.5-2.8c-.2.1-.5.5-.4.7s3.2 2.5 3.1 2.8c0 .3-.6 1.2-.9 1s-3.5-3-3.9-3c-.5.1-.5.4-.4.6.1.2 3.6 2.5 3.4 2.9-.2.3-.5.7-.7.6-.2-.1-3.5-3-3.8-2.9s-1 .2-.6.5 3.9 2.5 3.8 2.8-1 1.2-1.4 1.1c-.4-.1-3.7-3.2-4.2-3.2s-.6.6-.4.8 3.8 2.5 3.6 2.8c-.3.3-.6.5-.9.4-.3 0-3.8-3.2-4.2-3.1-.4.1-.7.6-.5.8s3.8 2.5 3.7 2.8c0 .2-.5.4-.9.4s-3.8-3.2-4.3-3-.5.5-.3.7 4.1 2.5 3.9 2.9-1.3.8-1.5.6-4-2.9-4.3-2.9-.9.4-.6.6c.3.2 3.9 2.2 3.8 2.5s-1.1.6-1.7.5-3.4-2.9-3.6-2.9c-.3 0-.8.3-.5.6s3.4 2.5 3 2.6c-.3.1-1.1.1-1.4 0s-3.3-2.7-3.7-2.5c-.4.1-.7.5-.3.8.5.3 2.8 1.5 2.6 1.7-.2.2-2.4.1-3.1 0-.6-.2-1-.8-1.6-.3s-1.5 2.3-2.3 2.6c-.7.2-.6.4-1.1.2-.5-.3-1.5-.6-1.2-1 .4-.3 2.2-1.9 2-2.4s-3-3.3-3.4-4c-.7-1.1-1.6-2.3-1.5-2.8.1-.4 4.7-6.6 5.7-8s4.6-4.9 5.8-4.5c1.2.3 3.4 2.1 5.9 4.6s3.4 3.3 5 3 2.2-.2 4.5-2 4.7-4.4 5.3-5.9c.6-1.5.9-2.7.2-3.4-.7-.7-2.5-1.6-3.3-1.8s-2.6-.7-4-1.5-2.8-2.6-2.8-3.6 1.4-2.4 3.6-5c2.2-2.7 6.8-7 7.7-7.5.9-.5 2.6-.4 4.5.6 1.9 1.1 2.4 1.6 2.7 2.1.3.5.4.8.2.6-.3-.1-1.4-1.5-1.8-1.1s-.5.5-.1.8c.5.3 2.6 1.7 3.1 2.4s.8 2.1.7 1.8c-.1-.2-2.8-3-3.2-3-.4 0-.7.3-.4.5.3.2 4 3.5 4.3 3.9.3.3.1 1.2-.1 1s-2.9-3.4-3.7-3.5c-.8-.2-.8.1-.8.4 0 .3 4.1 3.5 4.4 3.9s.6 1.4.2 1.4-4-3.6-4.3-3.6c-.5.4-.8.8-.4 1.2zm-34.1 22.6c-.3 0-2.6 2.6-2.9 3.3s0 1.9.3 2.3c.3.4.8.7 1.1.5.3-.3.3-.5-.1-1s-.4-1 0-1.7 1.6-2.2 2.1-2.6c.3-.3-.2-.8-.5-.8zm21.3-21.7c-.6.4-2.4 2.6-2.5 2.9-.3 1.3 1.6 2.7 2.2 2.7.6.1.6-.4.5-.8s-1.1-1.1-1.4-1.7 1.5-2.1 1.8-2.6c.3-.4 0-.9-.6-.5z"/></symbol><symbol id="icon-ufo" viewBox="0 0 56.73 88"><g class="cls-2"><path class="cls-3" d="M427.55 278.29a15.28 15.28 0 0 0-1.87-5.82c-1.68-3-4.22-5.26-6.36-7.86a6 6 0 0 0-.75-.64c-.63-.53-1.28-1-1.88-1.61a16.31 16.31 0 0 0-6.35-3.71c-.7-.22-1.44-.37-2.12-.66a14.79 14.79 0 0 0-7-.93c-1 0-2-.07-3 0a23.44 23.44 0 0 0-3.16.52 48.53 48.53 0 0 0-8.63 3 21.91 21.91 0 0 0-10.38 9.2 36.15 36.15 0 0 0-5.05 18.6 33.59 33.59 0 0 0 1 8.8 43.88 43.88 0 0 0 1.5 4.18 70.36 70.36 0 0 0 14.84 23.75 8.52 8.52 0 0 1 1.7 2.08c.26.6-.05 1.44-.07 2.17v3a9.86 9.86 0 0 1-.07 1.48 1.36 1.36 0 0 1-.42.85c-1.48 1-2.8 2.29-4.7 2.64a6 6 0 0 0-2.49 1 51.26 51.26 0 0 0-3.91 3.4 1 1 0 0 0 .4 1.79c.79.21 1.51.33 2 1.17.32.58 1.29.42 1.68-.16a5.86 5.86 0 0 0 .43-.88c.14-.3.24-.61.39-.89a.56.56 0 0 1 1-.13c.15.19.22.45.38.63a.68.68 0 0 0 1.2-.13c.26-.68.43-1.4.71-2.08 0-.13.4-.14.61-.18.06 0 .14.07.21.13 1.39 1.05 1.46 1.05 2-.39.16-.42.3-.74.76-.84s1.13-.24 1.68-.42c.3-.1.7-.27.8-.51.33-.86.91-.73 1.59-.58a4.34 4.34 0 0 0 1.47 0c.17 0 .34-.3.43-.49s-.12-.34-.23-.38c-.61-.21-1.25-.36-1.87-.59a1.87 1.87 0 0 1-.79-.52.89.89 0 0 1-.07-.67.47.47 0 0 1 .37-.25c.74 0 1.48.08 2.21.06a1.11 1.11 0 0 0 1.09-1.53c-.06-.23-.26-.43-.3-.67a1.85 1.85 0 0 1 .07-.68c.23-1 .22-1-.39-1.4s-1-.56-1.5-.84c-.07 0-.1-.13-.14-.2a.71.71 0 0 1 .21-.1 10 10 0 0 0 2.91-.47 13.68 13.68 0 0 1 1.88-.58c.56.65.2 1.42.23 2.13 0 1.07 0 2.14.07 3.21a7.32 7.32 0 0 0 .26 1.7 4.13 4.13 0 0 0 3.35 3.23 17 17 0 0 1 5.1 1.76 20.12 20.12 0 0 0 2.76 1.06 1.29 1.29 0 0 0 1.6-.8 1.17 1.17 0 0 0-.59-1.46 22.88 22.88 0 0 0-2.37-1.33c-1.93-.91-3.88-1.8-5.85-2.64a2 2 0 0 1-1.43-1.75 17 17 0 0 1 0-5.89c-.24-1.27.52-1.9 1.47-2.55a26 26 0 0 0 6.93-6.62 2.63 2.63 0 0 1 .66-.73c1.74-1.16 2.95-2.87 4.38-4.34a27.49 27.49 0 0 0 4.82-6.86c1.79-3.53 3-7.3 4.53-10.95a7.4 7.4 0 0 0 .16-.72c.76-2.61 1-5.32 1.55-8a29.13 29.13 0 0 0 .45-9.07zm-4.62 8A74.88 74.88 0 0 1 420 300.5a32 32 0 0 1-6.55 10.94 3.28 3.28 0 0 1-.52.53c-2.47 1.82-4.27 4.31-6.43 6.44a42 42 0 0 1-8.89 6.62 8.36 8.36 0 0 1-1.57.72 2.82 2.82 0 0 1-3.3-1c-1.85-2.32-3.7-4.64-5.51-7q-1.8-2.35-3.5-4.79A28.74 28.74 0 0 1 382 310a114.65 114.65 0 0 1-5.47-11.88 15 15 0 0 1-1-4.3c-.15-1.8-.34-3.6-.49-5.12a37.76 37.76 0 0 1 2.48-12.32 23.69 23.69 0 0 1 3.74-6.64 17.49 17.49 0 0 1 7.94-5.66 48.48 48.48 0 0 1 9.06-2.34 19.94 19.94 0 0 1 7.34.49c1.36.33 2.66.86 4 1.3a9.43 9.43 0 0 1 3 1.71 25.67 25.67 0 0 1 3.14 2.78c1.94 2.24 4.12 4.27 5.59 6.9a9.69 9.69 0 0 1 1.31 4.2c0 .82.29 1.62.33 2.43a28.07 28.07 0 0 1 .06 4.68zM417 288a2.91 2.91 0 0 0-2.87-1 16.91 16.91 0 0 0-5.76 2.12 12 12 0 0 0-5.32 5.34c-.29.59-.66 1.14-1 1.71a7.38 7.38 0 0 0-.84 3.07 3.29 3.29 0 0 0 1.6 3.13 8.38 8.38 0 0 0 4.14 1.11c2.19-.17 4.2-.54 5.83-2 .86-.77 1.77-1.48 2.62-2.26a7.48 7.48 0 0 0 2-2.78c.35-.92.71-1.84 1.09-2.75a5 5 0 0 0 0-3.85A6.51 6.51 0 0 0 417 288zm-2 3c-.56 1.26-1.1 2.53-1.71 3.76a5.23 5.23 0 0 1-1 1.37 1.37 1.37 0 0 1-2.24-.28 1 1 0 0 1-.18-.66 7.89 7.89 0 0 0 .3-1.42 2.64 2.64 0 0 1 1.77-2.63 4.15 4.15 0 0 1 2.72-.86c.14 0 .27.17.4.26a1.82 1.82 0 0 1-.06.47zm-21.28 10.92a8.16 8.16 0 0 0-.79-8.84 30.75 30.75 0 0 0-3.32-3.65 7.92 7.92 0 0 0-9.35-1.25 1.39 1.39 0 0 0-.76.91 11.71 11.71 0 0 0-.36 1.43 13.4 13.4 0 0 0 .14 5.87 10.42 10.42 0 0 0 10.12 7.21 12.07 12.07 0 0 0 1.72 0 3.11 3.11 0 0 0 2.59-1.66zm-3.43-5.37c-1-.43-2.09-.88-3.12-1.34a2.52 2.52 0 0 1-1.25-1.46 4.07 4.07 0 0 1-.34-1.65c0-.31.43-.64.73-.89a.66.66 0 0 1 .64 0 25.81 25.81 0 0 1 4.05 4.25 1.94 1.94 0 0 1 .18.45c.06.26-.61.79-.89.67zm5-8.73a1.07 1.07 0 0 0 1.42.95c.68-.23 1.3-.65 2.06-.15.14.09.7-.15.81-.36a.87.87 0 0 1 1.32-.46.73.73 0 0 0 .63-.21 1.61 1.61 0 0 0 .2-1.63c-.16-.5-.53-.55-1-.4s-.4-.16-.48-.37a1.14 1.14 0 0 0-1.32-.84c-.46.08-.76-.18-1.14-.34a1.38 1.38 0 0 0-2 .7 10.44 10.44 0 0 0-.51 1.84v1.24zm-2.1 22.64a1.61 1.61 0 0 0 1.58.43 2.77 2.77 0 0 0 1.95-1.72 20.26 20.26 0 0 0 .58-2.31v-1a.8.8 0 0 0-.77-.77c-.66 0-1.38 0-1.76.62q-1 1.68-1.85 3.44a1.12 1.12 0 0 0 .28 1.35zm6.71 5.73a3.11 3.11 0 0 0-.73-.07c-1.89.14-3.78.28-5.66.47a2.76 2.76 0 0 0-1.12.46.8.8 0 0 0-.32.61.84.84 0 0 0 .38.59 2 2 0 0 0 .93.25H399.84a1.08 1.08 0 0 0 1-1 1.17 1.17 0 0 0-.89-1.3zm-.2-10.42a1.11 1.11 0 0 0-.47 1.07 7.28 7.28 0 0 0 .77 2.83 1.48 1.48 0 0 0 1.8.91 1.57 1.57 0 0 0 .88-1.66c0-1.24-.82-2-1.63-2.85a1.16 1.16 0 0 0-1.34-.29zm0 0" transform="translate(-371 -257)"/></g></symbol><symbol id="icon-vk" viewBox="0 0 49.963 49.963"><path d="M40.593 26.138c-.1-.3.3-.3 1.2-1.3.9-.9 3.9-4.7 6.2-7.6 2.3-2.9 2-4.8 1.9-6.5-.1-1.8-1.1-2.6-2.1-3-1-.4-5.9-.2-6.7-.1-.8.1-1.2.5-1.7 1.2s-3.3 5.1-4.5 6.5c-1.1 1.4-3.5 3.6-3.7 3.5s-.2-5.8-.3-7.1c-.2-1.3-2.7-2.5-4.3-2.6s-8.4.2-9.2.4c-.8.2-1.3 1-1.2 1.3s1.5 1.7 1.9 2.2.8 5.4.8 7.5c0 2-.8 2.9-1.1 2.8-.3-.1-1.6-.6-3.1-2.4-1.6-1.8-5.6-10.2-5.8-10.4-.2-.3-.9-.4-3.2-.5-2.3-.1-4.6.2-5 .9-1.2 2-.6 6.1 0 7.9s1.7 4.9 3.9 8.3c2.2 3.5 5.6 7.1 8.9 10.3s5.7 4.2 7.1 4.7 4 .3 6.2.2c2.2-.1 3.1-1 3.5-2.1.5-1.1.4-3.9.3-4.2-.1-.3-.1-1.5.4-1.6.5 0 .9.6 1.7 1.5.8.9 2.1 4.5 2.6 4.9.6.4 1.7.7 3.6.7s5.9-.1 6.7-.4c.8-.3 2.5-2.3 2.8-3.6.3-1.3-.7-2.6-1.6-4.3-1.1-1.8-6.1-6.9-6.2-7.1zm6.4 11.4c-.1-.2-3.7-4.6-4.9-6.2-1.2-1.6-1.8-2.2-2.1-2-.4.2-.2.6 0 .8.2.2 6.4 7.6 6.3 7.7s-1.2.4-1.3.2c-.1-.2-2.4-3.6-4-5.3-1.5-1.8-2.5-2.6-2.8-2.5s-.4.6-.1.9 2.3 1.8 3.6 3.6c1.3 1.8 2.6 3.3 2.4 3.4-.2.2-1.4.1-1.4.1-.1-.1-2.7-3.5-4-4.9-1.3-1.4-1.5-1.5-1.9-1.4-.4.2.4.9 1 1.5s3.6 4.2 3.8 4.4c.2.2.3.6.1.6s-1.4 0-1.5-.1-4.2-6-4.6-6c-.4-.1-.6.2-.5.4s4.3 5.4 4 5.5-1 .1-1.2-.2c-.3-.2-2.8-4-4.4-5.3-1.6-1.3-2.6-1.7-3.4-1.7s-1.3.7-1.3.7-2.3-2.7-2.6-2.6c-.4.1-.4.4-.2.7.2.3 2.3 2.3 2.3 2.5 0 .1-.2 1.4-.2 1.5s-3-3.2-3.2-3.2c-.2.1-.4.7-.3.9s3.8 3.2 3.8 3.5c.1.3.2 2.2 0 2s-4-4.7-4.2-4.7-.6.6-.5.8c.2.2 4.6 4.5 4.5 4.7 0 .2-.4.5-.7.4s-4.2-4.7-4.6-4.6c-.4.2-.7.4-.4.7s4.1 3.9 4 4.1-1.2.1-1.4 0-3.3-4.2-3.9-4c-.5.1-.6.6-.4.8.2.3 3.5 3.2 3.3 3.3-.2.1-1.2.1-1.4 0-.3-.1-2.9-3.2-3.3-3.3-.3-.1-.6.4-.5.6s2.2 2.2 2.1 2.4c-.1.2-2.9-.7-4.3-1.8s-4.8-4.3-7-7.3-3.5-4.6-5.5-8.5-3.7-8.3-2.7-9.4c.3-.4 1-.6 1.9-.6s4.3-.1 4.5.2 3 6.6 4.6 8.9 3.1 3.8 4 4.2c1 .4 2.3 0 2.8-1.2s.5-3.2.3-4.8c-.2-1.6 0-4.3-.7-5.4s-1.3-1.9-1.3-2c.1-.2 3.6-.4 6-.5s4.2-.3 4.3 1 .1 3.1 0 5.9c-.1 2.7 0 3.4.9 3.8s2.1-.1 4.1-1.9 4-4.6 5.3-6.6 2.4-3.4 2.5-3.5c.2-.1 4.4-.4 4.8-.1s1.7 2 1.9 2.1c.2.2.2.4.2.5s-.3.9-.5.7-1.7-1.8-2-1.7c-.3.1-.4.3-.2.7.3.3 1.9 1.6 1.8 1.8 0 .2-.6 1.1-.7 1s-1.9-2.4-2.2-2.3c-.2.1-.6.6-.3.8.2.3 1.9 2 1.9 2.2s-.6 1.1-.7 1-2-2.1-2.2-2-.5.3-.3.6 2.2 1.9 2.1 2.2c-.1.3-.7 1.4-.8 1.3-.2-.1-2.3-2.7-2.5-2.5s-.5.4-.3.6 2.2 2.5 2.2 2.6-.5.8-.6.8-2-2.3-2.2-2.2-.6.4-.5.6 2.1 2.1 1.8 2.5c-.3.4-.5.7-.7.7s-2.2-2.5-2.4-2.4c-.2.1-.6.3-.5.6.1.3 2.4 2.4 2.3 2.6s-.7.7-.9.6c-.2-.1-2-2.2-2.3-2.1s-.5.1-.5.4 2 2.1 1.9 2.3c-.2.2-1.2.7-1.6 1.1s-.4.7-.1.9 4.4 3.5 6.7 6.5 2.9 4.2 3.2 5c.6.7.6 1.6.5 1.4zm-41.3-25.3c-.3-.2-2.9-.2-3 .1-.1.3.9 3.5 1.2 3.7.4.2.7-.1.8-.3s-.7-2.4-.6-2.6c0-.2 1.4-.1 1.6-.1.2-.1.3-.6 0-.8zm16.8-1c-.1.2 0 .7.3.8.3.1 2.4.2 2.6.3.2.1.2 1.2.2 1.6.1.4.7.2.9 0s.1-2.4 0-2.6-3.9-.2-4-.1z"/></symbol></svg>